<svg id="visual" viewBox="0 0 900 600" width="900" height="600" xmlns="http://www.w3.org/2000/svg" xmlns:xlink="http://www.w3.org/1999/xlink" version="1.1"><path d="M0 214L25 220.2C50 226.3 100 238.7 150 244.8C200 251 250 251 300 244.8C350 238.7 400 226.3 450 232.5C500 238.7 550 263.3 600 263.7C650 264 700 240 750 235.2C800 230.3 850 244.7 875 251.8L900 259L900 601L875 601C850 601 800 601 750 601C700 601 650 601 600 601C550 601 500 601 450 601C400 601 350 601 300 601C250 601 200 601 150 601C100 601 50 601 25 601L0 601Z" fill="#8453f9"></path><path d="M0 332L25 332.3C50 332.7 100 333.3 150 335.2C200 337 250 340 300 350.2C350 360.3 400 377.7 450 384.7C500 391.7 550 388.3 600 379.3C650 370.3 700 355.7 750 355.3C800 355 850 369 875 376L900 383L900 601L875 601C850 601 800 601 750 601C700 601 650 601 600 601C550 601 500 601 450 601C400 601 350 601 300 601C250 601 200 601 150 601C100 601 50 601 25 601L0 601Z" fill="#6834eb"></path><path d="M0 498L25 500.8C50 503.7 100 509.3 150 500.7C200 492 250 469 300 466.7C350 464.3 400 482.7 450 494C500 505.3 550 509.7 600 510.5C650 511.3 700 508.7 750 507.7C800 506.7 850 507.3 875 507.7L900 508L900 601L875 601C850 601 800 601 750 601C700 601 650 601 600 601C550 601 500 601 450 601C400 601 350 601 300 601C250 601 200 601 150 601C100 601 50 601 25 601L0 601Z" fill="#4709dd"></path></svg>